<svg width="213" height="213" viewBox="0 0 213 213" fill="none" xmlns="http://www.w3.org/2000/svg">
<g clip-path="url(#clip0_106_450)">
<mask id="mask0_106_450" style="mask-type:luminance" maskUnits="userSpaceOnUse" x="0" y="0" width="213" height="213">
<path d="M213 0H0V213H213V0Z" fill="white"/>
</mask>
<g mask="url(#mask0_106_450)">
<mask id="mask1_106_450" style="mask-type:luminance" maskUnits="userSpaceOnUse" x="-11" y="19" width="255" height="178">
<path d="M243.834 19.6528H-10.4878V196.017H243.834V19.6528Z" fill="white"/>
</mask>
<g mask="url(#mask1_106_450)">
<path d="M82.1643 127.495H70.1206V127.494C60.6994 96.5613 62.6264 65.9328 72.0476 34.9996L82.1643 32.5908C72.7431 63.524 72.7431 96.5613 82.1643 127.494V127.495Z" fill="#F4C42C"/>
</g>
<mask id="mask2_106_450" style="mask-type:luminance" maskUnits="userSpaceOnUse" x="64" y="19" width="255" height="177">
<path d="M318.773 19.6187H64.4507V195.983H318.773V19.6187Z" fill="white"/>
</mask>
<g mask="url(#mask2_106_450)">
<path d="M138.529 41.6978H147.2V97.7794L142.925 136.889L135.638 118.709L138.529 41.6978Z" fill="#F4C42C"/>
<path d="M141.058 41.5635H149.729C149.729 41.5635 151.536 67.1893 149.729 97.6451C147.923 128.101 142.925 136.889 142.925 136.889L138.167 118.575C138.167 118.575 139.435 105.976 139.464 84.0338C139.492 62.0909 141.058 41.5635 141.058 41.5635Z" fill="#FAE057"/>
</g>
<mask id="mask3_106_450" style="mask-type:luminance" maskUnits="userSpaceOnUse" x="-22" y="19" width="256" height="177">
<path d="M233.022 19.5962H-21.2998V195.96H233.022V19.5962Z" fill="white"/>
</mask>
<g mask="url(#mask3_106_450)">
<path d="M65.8719 61.6332C65.6504 66.7373 65.0506 71.1356 64.3087 75.5146C63.2656 81.6546 61.9384 87.7557 60.9678 95.6998C59.4478 108.126 63.8582 126.772 63.8582 126.772H53.9825C53.9825 126.772 49.8878 93.291 53.9825 68.722C58.0774 44.1531 53.9825 39.3355 53.9825 39.3355L59.6478 36.0189L62.5696 34.3087L63.8582 33.5547C63.8608 33.5666 63.8608 33.5764 63.8631 33.5883C65.742 45.6778 66.1899 54.3686 65.8719 61.6332Z" fill="#F4C42C"/>
<path d="M56.8727 37.7538C56.8727 37.7538 60.9676 42.6586 56.8727 67.672C52.7778 92.6855 56.8727 126.772 56.8727 126.772H66.7484C66.7484 126.772 62.3393 107.788 63.858 95.1377C66.5075 73.0671 71.8068 64.9744 66.7484 31.8687L56.8727 37.7538Z" fill="#FAE057"/>
<path d="M65.5444 33.5062L66.2669 33.0728V35.2407L65.5444 33.5062Z" fill="#FF8047"/>
<path d="M58.0106 37.7612L58.2951 37.8124L57.8057 38.373L58.0106 37.7612Z" fill="#FF8047"/>
<path d="M64.514 36.5566L64.7986 36.6078L64.3091 37.1684L64.514 36.5566Z" fill="#FF8047"/>
<path d="M59.7362 39.0215L60.2315 39.1103L59.3799 40.0856L59.7362 39.0215Z" fill="#FF8047"/>
<path d="M58.2909 41.4302L58.7861 41.519L57.9346 42.4943L58.2909 41.4302Z" fill="#FF8047"/>
<path d="M66.7216 37.8169L67.2168 37.9057L66.3652 38.881L66.7216 37.8169Z" fill="#FF8047"/>
<path d="M61.9037 35.4087L62.3989 35.4975L61.5474 36.4728L61.9037 35.4087Z" fill="#FF8047"/>
<path d="M63.1357 38.7574L63.3764 38.6128V39.3357L63.1357 38.7574Z" fill="#FF8047"/>
<path d="M55.9097 39.7208L56.1504 39.5762V40.2991L55.9097 39.7208Z" fill="#FF8047"/>
<path d="M55.9097 43.3341L56.1504 43.1895V43.9124L55.9097 43.3341Z" fill="#FF8047"/>
</g>
<mask id="mask4_106_450" style="mask-type:luminance" maskUnits="userSpaceOnUse" x="12" y="19" width="255" height="177">
<path d="M266.744 19.6265H12.4219V195.99H266.744V19.6265Z" fill="white"/>
</mask>
<g mask="url(#mask4_106_450)">
<path d="M87.7042 61.9773C87.7042 61.9773 91.7992 66.795 87.7042 91.3639C83.6093 115.933 87.7042 149.414 87.7042 149.414H97.58C97.58 149.414 93.1709 130.767 94.6896 118.342C97.3391 96.6629 102.638 88.7141 97.58 56.1963L87.7042 61.9773Z" fill="#F4C42C"/>
<path d="M90.5949 60.3959C90.5949 60.3959 94.6898 65.3007 90.5949 90.3141C86.4999 115.328 90.5949 149.414 90.5949 149.414H100.471C100.471 149.414 96.0615 130.43 97.5802 117.78C100.23 95.709 105.529 87.6165 100.471 54.5107L90.5949 60.3959Z" fill="#FAE057"/>
<path d="M99.2661 56.63L99.9886 56.1963V58.3642L99.2661 56.63Z" fill="#FF8047"/>
<path d="M91.7322 60.8848L92.0168 60.9359L91.5273 61.4965L91.7322 60.8848Z" fill="#FF8047"/>
<path d="M98.2357 59.6802L98.5202 59.7313L98.0308 60.2919L98.2357 59.6802Z" fill="#FF8047"/>
<path d="M93.4579 62.145L93.9531 62.2338L93.1016 63.2092L93.4579 62.145Z" fill="#FF8047"/>
<path d="M92.0126 64.5537L92.5078 64.6425L91.6562 65.6179L92.0126 64.5537Z" fill="#FF8047"/>
<path d="M100.443 60.9409L100.938 61.0297L100.087 62.0051L100.443 60.9409Z" fill="#FF8047"/>
<path d="M95.6259 58.5317L96.1211 58.6206L95.2695 59.5959L95.6259 58.5317Z" fill="#FF8047"/>
<path d="M96.8574 61.8812L97.0981 61.7368V62.4593L96.8574 61.8812Z" fill="#FF8047"/>
<path d="M89.6313 62.8446L89.872 62.7002V63.4227L89.6313 62.8446Z" fill="#FF8047"/>
<path d="M89.6313 66.4579L89.872 66.3135V67.036L89.6313 66.4579Z" fill="#FF8047"/>
</g>
<mask id="mask5_106_450" style="mask-type:luminance" maskUnits="userSpaceOnUse" x="-5" y="19" width="256" height="177">
<path d="M250.238 19.5962H-4.08398V195.96H250.238V19.5962Z" fill="white"/>
</mask>
<g mask="url(#mask5_106_450)">
<path d="M85.5364 127.495H73.4928V127.495C69.6911 115.013 67.1034 98.3892 67.9552 81.8495C69.2144 57.4007 75.4198 34.2773 75.4198 34.2773L85.5364 31.8687C85.5364 31.8687 77.2901 55.413 76.6381 80.8861C76.2094 97.6375 81.7987 115.223 85.5364 127.495V127.495Z" fill="#FAE057"/>
<path d="M76.1426 34.2772L77.3469 33.5547V37.1676L76.1426 34.2772Z" fill="#FF8047"/>
<path d="M83.4283 34.0376L84.3881 34.2099L82.7378 36.099L83.4283 34.0376Z" fill="#FF8047"/>
<path d="M80.478 33.7474L81.2005 33.314V35.4819L80.478 33.7474Z" fill="#FF8047"/>
<path d="M72.9442 38.002L73.2287 38.0531L72.7393 38.6137L72.9442 38.002Z" fill="#FF8047"/>
<path d="M79.4476 36.7974L79.7321 36.8485L79.2427 37.4091L79.4476 36.7974Z" fill="#FF8047"/>
<path d="M74.6698 39.2622L75.1651 39.351L74.3135 40.3264L74.6698 39.2622Z" fill="#FF8047"/>
<path d="M73.2245 41.6709L73.7197 41.7597L72.8682 42.735L73.2245 41.6709Z" fill="#FF8047"/>
<path d="M81.6549 38.0581L82.1503 38.1469L81.2983 39.1223L81.6549 38.0581Z" fill="#FF8047"/>
<path d="M76.8378 35.6494L77.333 35.7382L76.4814 36.7136L76.8378 35.6494Z" fill="#FF8047"/>
<path d="M78.0693 38.9981L78.31 38.8535V39.5764L78.0693 38.9981Z" fill="#FF8047"/>
<path d="M70.8433 39.962L71.084 39.8174V40.5403L70.8433 39.962Z" fill="#FF8047"/>
<path d="M70.8433 43.5748L71.084 43.4302V44.1531L70.8433 43.5748Z" fill="#FF8047"/>
</g>
<mask id="mask6_106_450" style="mask-type:luminance" maskUnits="userSpaceOnUse" x="23" y="19" width="255" height="178">
<path d="M277.343 19.6465H23.0205V196.01H277.343V19.6465Z" fill="white"/>
</mask>
<g mask="url(#mask6_106_450)">
<path d="M98.3029 43.9122C98.3029 43.9122 102.398 48.7298 98.3029 73.2989C94.208 97.8678 98.3029 131.349 98.3029 131.349H108.179C108.179 131.349 103.77 112.702 105.288 100.277C107.938 78.5979 113.237 70.6492 108.179 38.1313L98.3029 43.9122Z" fill="#F4C42C"/>
<path d="M101.194 42.3307C101.194 42.3307 105.288 47.2355 101.194 72.2489C97.0986 97.2624 101.194 131.349 101.194 131.349H111.069C111.069 131.349 106.66 112.365 108.179 99.7146C110.828 77.644 116.128 69.5513 111.069 36.4453L101.194 42.3307Z" fill="#FAE057"/>
<path d="M109.383 39.0465L110.106 38.6128V40.7807L109.383 39.0465Z" fill="#FF8047"/>
<path d="M101.849 43.3013L102.134 43.3524L101.644 43.913L101.849 43.3013Z" fill="#FF8047"/>
<path d="M108.352 42.0967L108.637 42.1478L108.147 42.7084L108.352 42.0967Z" fill="#FF8047"/>
<path d="M103.575 44.5615L104.07 44.6503L103.218 45.6257L103.575 44.5615Z" fill="#FF8047"/>
<path d="M102.129 46.9702L102.625 47.059L101.773 48.0344L102.129 46.9702Z" fill="#FF8047"/>
<path d="M110.56 43.3569L111.056 43.4458L110.204 44.4211L110.56 43.3569Z" fill="#FF8047"/>
<path d="M105.743 40.9487L106.238 41.0376L105.386 42.0129L105.743 40.9487Z" fill="#FF8047"/>
<path d="M106.974 44.2975L107.215 44.1528V44.8758L106.974 44.2975Z" fill="#FF8047"/>
<path d="M99.7485 45.2608L99.9892 45.1162V45.8391L99.7485 45.2608Z" fill="#FF8047"/>
<path d="M99.7485 48.8741L99.9892 48.7295V49.4524L99.7485 48.8741Z" fill="#FF8047"/>
<path d="M109.865 62.1705L110.587 61.7368V63.9047L109.865 62.1705Z" fill="#FF8047"/>
<path d="M102.331 66.4248L102.615 66.4759L102.126 67.0365L102.331 66.4248Z" fill="#FF8047"/>
<path d="M108.834 65.2207L109.119 65.2718L108.629 65.8324L108.834 65.2207Z" fill="#FF8047"/>
<path d="M104.057 67.6855L104.552 67.7744L103.7 68.7497L104.057 67.6855Z" fill="#FF8047"/>
<path d="M102.611 70.0942L103.106 70.1831L102.255 71.1584L102.611 70.0942Z" fill="#FF8047"/>
<path d="M111.042 66.481L111.537 66.5698L110.685 67.5451L111.042 66.481Z" fill="#FF8047"/>
<path d="M106.225 64.0723L106.72 64.1611L105.868 65.1364L106.225 64.0723Z" fill="#FF8047"/>
<path d="M107.456 67.4213L107.697 67.2769V67.9994L107.456 67.4213Z" fill="#FF8047"/>
<path d="M100.23 68.3846L100.471 68.2402V68.9627L100.23 68.3846Z" fill="#FF8047"/>
<path d="M100.23 71.9979L100.471 71.8535V72.576L100.23 71.9979Z" fill="#FF8047"/>
</g>
<mask id="mask7_106_450" style="mask-type:luminance" maskUnits="userSpaceOnUse" x="2" y="19" width="255" height="177">
<path d="M256.386 19.6035H2.06445V195.968H256.386V19.6035Z" fill="white"/>
</mask>
<g mask="url(#mask7_106_450)">
<path d="M77.3468 44.6346C77.3468 44.6346 81.4417 49.452 77.3468 74.0209C73.2519 98.59 77.3468 132.071 77.3468 132.071H87.2226C87.2226 132.071 82.8135 113.425 84.3322 100.999C86.9817 79.3201 92.2809 71.3714 87.2226 38.8535L77.3468 44.6346Z" fill="#F4C42C"/>
<path d="M80.2374 43.0531C80.2374 43.0531 84.3324 47.9576 80.2374 72.9711C76.1425 97.9845 80.2374 132.071 80.2374 132.071H90.1132C90.1132 132.071 85.7041 113.087 87.2228 100.437C89.8723 78.3662 95.1715 70.2734 90.1132 37.1675L80.2374 43.0531Z" fill="#FAE057"/>
<path d="M89.2096 37.6504L90.1694 37.8227L88.519 39.7118L89.2096 37.6504Z" fill="#FF8047"/>
<path d="M86.0181 39.9615L86.2588 39.8169V40.5398L86.0181 39.9615Z" fill="#FF8047"/>
<path d="M89.1499 40.2506L89.8724 39.8169V41.9848L89.1499 40.2506Z" fill="#FF8047"/>
<path d="M81.6156 44.5049L81.9001 44.556L81.4106 45.1166L81.6156 44.5049Z" fill="#FF8047"/>
<path d="M88.1195 43.3008L88.404 43.3519L87.9146 43.9125L88.1195 43.3008Z" fill="#FF8047"/>
<path d="M83.3414 45.7656L83.8369 45.8544L82.9849 46.8298L83.3414 45.7656Z" fill="#FF8047"/>
<path d="M81.8961 48.1743L82.3916 48.2631L81.5396 49.2385L81.8961 48.1743Z" fill="#FF8047"/>
<path d="M90.3266 44.5615L90.8218 44.6503L89.9702 45.6257L90.3266 44.5615Z" fill="#FF8047"/>
<path d="M85.5092 42.1528L86.0044 42.2417L85.1528 43.217L85.5092 42.1528Z" fill="#FF8047"/>
<path d="M86.7412 45.5016L86.9819 45.3569V46.0799L86.7412 45.5016Z" fill="#FF8047"/>
<path d="M88.7277 44.877L89.6874 45.0493L88.0371 46.9384L88.7277 44.877Z" fill="#FF8047"/>
<path d="M85.5366 47.1881L85.7773 47.0435V47.7664L85.5366 47.1881Z" fill="#FF8047"/>
<path d="M88.668 47.4771L89.3905 47.0435V49.2114L88.668 47.4771Z" fill="#FF8047"/>
<path d="M81.1341 51.7314L81.4187 51.7826L80.9292 52.3432L81.1341 51.7314Z" fill="#FF8047"/>
<path d="M87.6375 50.5269L87.9221 50.578L87.4326 51.1386L87.6375 50.5269Z" fill="#FF8047"/>
<path d="M82.8595 52.9917L83.3549 53.0805L82.5029 54.0558L82.8595 52.9917Z" fill="#FF8047"/>
<path d="M81.4142 55.4009L81.9096 55.4897L81.0576 56.465L81.4142 55.4009Z" fill="#FF8047"/>
<path d="M89.8446 51.7876L90.3399 51.8764L89.4883 52.8517L89.8446 51.7876Z" fill="#FF8047"/>
<path d="M85.0272 49.3789L85.5225 49.4677L84.6709 50.4431L85.0272 49.3789Z" fill="#FF8047"/>
<path d="M86.2593 52.7276L86.5 52.583V53.3059L86.2593 52.7276Z" fill="#FF8047"/>
</g>
<mask id="mask8_106_450" style="mask-type:luminance" maskUnits="userSpaceOnUse" x="40" y="19" width="255" height="177">
<path d="M294.445 19.6235H40.1226V195.988H294.445V19.6235Z" fill="white"/>
</mask>
<g mask="url(#mask8_106_450)">
<path d="M114.201 46.0337H122.872V102.115L118.597 141.225L111.31 123.045L114.201 46.0337Z" fill="#F4C42C"/>
<path d="M116.73 45.8999H125.401C125.401 45.8999 127.208 71.5257 125.401 101.982C123.595 132.437 118.597 141.225 118.597 141.225L113.839 122.912C113.839 122.912 115.107 110.313 115.136 88.3702C115.164 66.4274 116.73 45.8999 116.73 45.8999Z" fill="#FAE057"/>
<path d="M123.835 45.3096L124.558 44.876V47.0439L123.835 45.3096Z" fill="#FF8047"/>
<path d="M116.301 49.564L116.586 49.6151L116.096 50.1757L116.301 49.564Z" fill="#FF8047"/>
<path d="M122.805 48.3599L123.09 48.411L122.6 48.9716L122.805 48.3599Z" fill="#FF8047"/>
<path d="M118.027 50.8247L118.522 50.9135L117.67 51.8889L118.027 50.8247Z" fill="#FF8047"/>
<path d="M116.582 53.2334L117.077 53.3222L116.225 54.2975L116.582 53.2334Z" fill="#FF8047"/>
<path d="M125.012 49.6201L125.508 49.7089L124.656 50.6843L125.012 49.6201Z" fill="#FF8047"/>
<path d="M120.195 47.2114L120.69 47.3002L119.838 48.2756L120.195 47.2114Z" fill="#FF8047"/>
<path d="M121.427 50.5606L121.667 50.416V51.1389L121.427 50.5606Z" fill="#FF8047"/>
<path d="M114.201 51.524L114.441 51.3794V52.1023L114.201 51.524Z" fill="#FF8047"/>
<path d="M114.201 55.1373L114.441 54.9927V55.7156L114.201 55.1373Z" fill="#FF8047"/>
</g>
<mask id="mask9_106_450" style="mask-type:luminance" maskUnits="userSpaceOnUse" x="69" y="19" width="256" height="177">
<path d="M324.072 19.5908H69.7495V195.955H324.072V19.5908Z" fill="white"/>
</mask>
<g mask="url(#mask9_106_450)">
<path d="M145.032 46.0794C145.032 46.0794 149.127 50.897 145.032 75.4659C140.937 100.035 145.032 133.516 145.032 133.516H154.908C154.908 133.516 150.498 114.87 152.017 102.444C154.667 80.7651 159.966 72.8162 154.908 40.2983L145.032 46.0794Z" fill="#F4C42C"/>
<path d="M147.923 44.4982C147.923 44.4982 152.017 49.4027 147.923 74.4162C143.828 99.4296 147.923 133.516 147.923 133.516H157.798C157.798 133.516 153.389 114.533 154.908 101.882C157.557 79.8115 162.856 71.7187 157.798 38.6128L147.923 44.4982Z" fill="#FAE057"/>
<path d="M157.075 41.2139L157.798 40.7803V42.9482L157.075 41.2139Z" fill="#FF8047"/>
<path d="M149.542 45.4688L149.826 45.5199L149.336 46.0805L149.542 45.4688Z" fill="#FF8047"/>
<path d="M156.045 44.2642L156.33 44.3153L155.84 44.8759L156.045 44.2642Z" fill="#FF8047"/>
<path d="M151.267 46.729L151.762 46.8178L150.91 47.7932L151.267 46.729Z" fill="#FF8047"/>
<path d="M149.821 49.1377L150.317 49.2265L149.465 50.2018L149.821 49.1377Z" fill="#FF8047"/>
<path d="M158.252 45.5244L158.748 45.6132L157.896 46.5886L158.252 45.5244Z" fill="#FF8047"/>
<path d="M153.435 43.1162L153.93 43.205L153.078 44.1804L153.435 43.1162Z" fill="#FF8047"/>
<path d="M154.667 46.4649L154.907 46.3203V47.0432L154.667 46.4649Z" fill="#FF8047"/>
<path d="M147.44 47.4283L147.681 47.2837V48.0066L147.44 47.4283Z" fill="#FF8047"/>
<path d="M147.44 51.0416L147.681 50.897V51.6199L147.44 51.0416Z" fill="#FF8047"/>
<path d="M155.224 57.0001L155.112 57.8353L153.418 56.4814L155.224 57.0001Z" fill="#FF8047"/>
<path d="M156.607 48.4586L156.389 48.6492L156.256 47.9165L156.607 48.4586Z" fill="#FF8047"/>
<path d="M153.486 54.2906L153.268 54.4813L153.136 53.7485L153.486 54.2906Z" fill="#FF8047"/>
<path d="M154.544 49.0194L154.166 49.3508L153.936 48.0767L154.544 49.0194Z" fill="#FF8047"/>
<path d="M153.566 46.3861L153.187 46.7175L152.958 45.4434L153.566 46.3861Z" fill="#FF8047"/>
<path d="M151.123 55.2269L150.744 55.5583L150.515 54.2842L151.123 55.2269Z" fill="#FF8047"/>
<path d="M156.013 52.9686L155.633 53.3L155.404 52.0259L156.013 52.9686Z" fill="#FF8047"/>
<path d="M152.628 51.8392L152.59 52.1176L152.026 51.6665L152.628 51.8392Z" fill="#FF8047"/>
<path d="M156.388 45.5936L156.35 45.872L155.786 45.4209L156.388 45.5936Z" fill="#FF8047"/>
<path d="M153.566 43.3373L153.528 43.6157L152.964 43.1646L153.566 43.3373Z" fill="#FF8047"/>
</g>
<mask id="mask10_106_450" style="mask-type:luminance" maskUnits="userSpaceOnUse" x="48" y="19" width="255" height="178">
<path d="M302.848 19.8491H48.5259V196.213H302.848V19.8491Z" fill="white"/>
</mask>
<g mask="url(#mask10_106_450)">
<path d="M141.178 135.203H129.134C119.713 104.27 121.64 73.6415 131.061 42.7083V42.7081L141.178 40.2993C131.757 71.2325 131.757 104.27 141.178 135.203Z" fill="#F4C42C"/>
<path d="M144.55 135.203H132.506C128.705 122.721 126.117 106.097 126.969 89.5578C128.228 65.109 134.433 41.9855 134.433 41.9855L144.55 39.5767C144.55 39.5767 136.304 63.1213 135.652 88.5944C135.223 105.346 140.812 122.931 144.55 135.203Z" fill="#FAE057"/>
<path d="M139.974 41.4556L140.696 41.022V43.1899L139.974 41.4556Z" fill="#FF8047"/>
<path d="M132.439 45.71L132.724 45.7611L132.234 46.3217L132.439 45.71Z" fill="#FF8047"/>
<path d="M138.943 44.5059L139.228 44.557L138.738 45.1176L138.943 44.5059Z" fill="#FF8047"/>
<path d="M134.165 46.9707L134.661 47.0595L133.809 48.0349L134.165 46.9707Z" fill="#FF8047"/>
<path d="M132.72 49.3794L133.215 49.4682L132.363 50.4435L132.72 49.3794Z" fill="#FF8047"/>
<path d="M141.151 45.7661L141.646 45.8549L140.794 46.8303L141.151 45.7661Z" fill="#FF8047"/>
<path d="M136.333 43.3574L136.829 43.4462L135.977 44.4216L136.333 43.3574Z" fill="#FF8047"/>
<path d="M137.565 46.7066L137.806 46.562V47.2849L137.565 46.7066Z" fill="#FF8047"/>
<path d="M130.339 47.67L130.58 47.5254V48.2483L130.339 47.67Z" fill="#FF8047"/>
<path d="M130.339 51.2833L130.58 51.1387V51.8616L130.339 51.2833Z" fill="#FF8047"/>
</g>
<mask id="mask11_106_450" style="mask-type:luminance" maskUnits="userSpaceOnUse" x="-57" y="19" width="306" height="246">
<path d="M248.784 19.5962H-56.2319V264.972H248.784V19.5962Z" fill="white"/>
</mask>
<g mask="url(#mask11_106_450)">
<path d="M117.188 113.734C116.574 114.131 115.95 114.496 115.315 114.824C114.767 115.114 114.211 115.374 113.647 115.604C112.863 115.935 112.064 116.209 111.253 116.431C109.666 116.863 108.035 117.089 106.372 117.089C106.181 117.089 105.992 117.086 105.803 117.078C104.957 117.054 104.117 116.968 103.289 116.828C103.175 116.81 103.063 116.788 102.949 116.767V180.968H122.034V109.703C120.51 111.278 118.889 112.631 117.188 113.734Z" fill="#F75337"/>
<path d="M141.535 79.8022V180.969H151.078L159.061 132.312L159.43 130.058L162.911 108.842L163.878 102.945L167.674 79.8022H141.535Z" fill="#F75337"/>
<path d="M64.3628 78.8172V180.968H83.4484V99.0122C80.6292 93.179 78.6481 86.2407 77.7965 78.6675L64.3628 78.8172Z" fill="#F75337"/>
<path d="M45.0698 79.8022L61.6659 180.969H64.3629V79.8022H45.0698Z" fill="#EF341C"/>
<path d="M102.239 116.617C102.175 116.603 102.112 116.586 102.049 116.571C101.887 116.532 101.725 116.492 101.564 116.448C101.457 116.42 101.351 116.388 101.244 116.358C101.137 116.327 101.029 116.295 100.921 116.263C100.78 116.219 100.639 116.173 100.498 116.127C100.434 116.106 100.37 116.084 100.306 116.062C100.152 116.009 99.999 115.956 99.8461 115.899C99.7826 115.875 99.7189 115.85 99.6555 115.826C99.5025 115.768 99.35 115.709 99.198 115.647C99.153 115.628 99.1085 115.609 99.0638 115.59C98.5413 115.371 98.0243 115.13 97.5138 114.866C97.4599 114.839 97.4062 114.812 97.3525 114.784C97.2064 114.707 97.0613 114.627 96.9165 114.547C96.8539 114.512 96.7913 114.477 96.7291 114.442C96.5838 114.359 96.4392 114.275 96.295 114.189C96.2383 114.155 96.1812 114.121 96.1246 114.086C95.9731 113.994 95.8221 113.9 95.6719 113.804C95.5697 113.739 95.4679 113.673 95.3663 113.606C95.2242 113.512 95.0828 113.416 94.942 113.319C94.8361 113.245 94.7303 113.172 94.6251 113.097C94.5345 113.033 94.4444 112.966 94.3543 112.9C94.2402 112.817 94.1266 112.732 94.0133 112.646C93.9294 112.582 93.8455 112.518 93.762 112.453C93.6325 112.352 93.5038 112.25 93.3754 112.146C93.3119 112.095 93.2484 112.044 93.1854 111.992C93.0872 111.912 92.9901 111.828 92.8925 111.745C92.7645 111.637 92.6363 111.528 92.5091 111.417C92.4695 111.382 92.4305 111.346 92.3911 111.311C92.1517 111.098 91.9146 110.88 91.6795 110.658C91.6145 110.596 91.5491 110.535 91.4844 110.472C91.2311 110.228 90.9802 109.98 90.7321 109.723C90.666 109.655 90.6013 109.584 90.5359 109.516C90.3144 109.283 90.0952 109.045 89.8781 108.803C89.8172 108.735 89.7557 108.668 89.6952 108.599C89.43 108.299 89.1682 107.992 88.9098 107.677C88.8719 107.631 88.8346 107.584 88.7969 107.538C88.5492 107.234 88.3045 106.924 88.0632 106.607C88.0365 106.572 88.0093 106.538 87.9826 106.503C87.7187 106.154 87.4591 105.798 87.2033 105.435C87.1121 105.305 87.0214 105.176 86.9313 105.045C86.7745 104.817 86.6194 104.586 86.4659 104.352C86.4177 104.279 86.3685 104.207 86.3206 104.133C86.1189 103.822 85.9202 103.507 85.7242 103.187C85.665 103.09 85.6073 102.992 85.5485 102.895C85.4056 102.658 85.2641 102.419 85.1244 102.177C85.059 102.064 84.9938 101.951 84.9291 101.837C84.7704 101.556 84.6136 101.273 84.459 100.986C84.4258 100.925 84.3915 100.865 84.3587 100.803C84.2924 100.679 84.2279 100.553 84.1625 100.428C84.0722 100.255 83.9812 100.083 83.8926 99.9087C83.7422 99.6131 83.5944 99.314 83.4487 99.0122V180.968H102.949V116.767C102.711 116.722 102.475 116.672 102.239 116.617Z" fill="#EF341C"/>
<path d="M122.033 160.942V180.969H102.949V174.6C110.009 170.488 116.349 165.864 122.033 160.942Z" fill="#F75337"/>
<path d="M164.989 96.1719L163.878 102.945L162.912 108.842L159.429 130.058L159.06 132.312L151.078 180.968H141.535V140.083C147.795 131.85 152.694 123.612 156.471 116.172C160.405 108.425 163.121 101.546 164.894 96.4441V96.4417C164.894 96.4392 164.894 96.4392 164.897 96.4368C164.928 96.3478 164.96 96.2586 164.989 96.1719Z" fill="#F75337"/>
<path d="M102.949 174.6V180.969H90.4453C94.8461 179.032 99.0086 176.895 102.949 174.6Z" fill="#EF341C"/>
<path d="M141.535 140.083V180.969H122.033V160.943C129.659 154.345 136.108 147.215 141.535 140.083Z" fill="#EF341C"/>
<path d="M122.033 160.942V180.969H102.949V174.6C110.009 170.488 116.349 165.864 122.033 160.942Z" fill="#F75337"/>
<path d="M164.989 96.1719L163.878 102.945L162.912 108.842L159.429 130.058L159.06 132.312L151.078 180.968H141.535V140.083C147.795 131.85 152.694 123.612 156.471 116.172C160.405 108.425 163.121 101.546 164.894 96.4441V96.4417C164.928 96.3502 164.96 96.2609 164.989 96.1719Z" fill="#F75337"/>
<path d="M102.949 174.6V180.969H90.4453C94.8461 179.032 99.0086 176.895 102.949 174.6Z" fill="#EF341C"/>
<path d="M141.535 140.083V180.969H122.033V160.943C129.659 154.345 136.108 147.215 141.535 140.083Z" fill="#EF341C"/>
<path d="M141.535 78.9521V180.969H122.034V109.703C122.281 109.447 122.526 109.185 122.768 108.918C122.834 108.845 122.899 108.768 122.965 108.694C123.137 108.5 123.309 108.306 123.478 108.107C123.542 108.031 123.605 107.953 123.67 107.876C123.82 107.696 123.969 107.514 124.118 107.33C124.22 107.202 124.321 107.072 124.422 106.942C124.565 106.759 124.708 106.576 124.848 106.389C125.042 106.131 125.233 105.867 125.423 105.601C125.475 105.528 125.528 105.457 125.58 105.384C125.747 105.146 125.91 104.902 126.074 104.659C126.124 104.584 126.175 104.512 126.225 104.437C126.242 104.411 126.26 104.384 126.278 104.358C126.471 104.064 126.662 103.765 126.851 103.462C126.876 103.421 126.902 103.38 126.928 103.339C127.099 103.063 127.267 102.782 127.433 102.499C127.489 102.405 127.544 102.311 127.599 102.216C127.758 101.941 127.915 101.664 128.07 101.384C128.116 101.3 128.161 101.216 128.207 101.132C128.333 100.899 128.458 100.664 128.582 100.427C128.655 100.288 128.727 100.149 128.799 100.008C128.929 99.7537 129.058 99.4975 129.184 99.2385C129.24 99.1245 129.295 99.0097 129.351 98.8949C129.469 98.6495 129.585 98.4018 129.699 98.1526C129.772 97.9941 129.844 97.8348 129.916 97.6746C130.047 97.3833 130.177 97.0912 130.304 96.7949C130.317 96.7638 130.33 96.7328 130.343 96.7017C130.571 96.1657 130.79 95.6194 131.004 95.0679C131.151 94.6882 131.296 94.305 131.437 93.9177C131.494 93.7593 131.552 93.6004 131.608 93.4406C131.762 93.0061 131.912 92.5675 132.057 92.1245C132.092 92.0197 132.128 91.9166 132.162 91.8112C132.169 91.7903 132.175 91.7692 132.182 91.7483C132.269 91.4763 132.353 91.2007 132.436 90.9257C132.49 90.7504 132.545 90.5766 132.597 90.4C132.711 90.0147 132.822 89.6264 132.93 89.2352C132.937 89.2096 132.944 89.1847 132.951 89.1591C133.154 88.4189 133.343 87.6666 133.522 86.9068C133.598 86.5837 133.672 86.2587 133.744 85.9322C133.783 85.7554 133.822 85.5788 133.86 85.4012C133.966 84.8995 134.067 84.3945 134.163 83.8854C134.165 83.8782 134.166 83.8712 134.168 83.8641C134.188 83.7553 134.209 83.6467 134.229 83.5376C134.297 83.1653 134.362 82.7906 134.425 82.4145C134.442 82.3058 134.461 82.1972 134.478 82.0884C134.541 81.6999 134.601 81.3098 134.657 80.9177C134.667 80.8521 134.677 80.7867 134.686 80.7211C134.738 80.3569 134.785 79.9903 134.831 79.6229C134.852 79.4548 134.874 79.2868 134.893 79.1181L141.535 78.9521Z" fill="#EF341C"/>
<path d="M141.419 86.0648H134.44V83.5693H141.419V86.0648Z" fill="#DB2315"/>
<path d="M102.949 174.6V180.969H122.033V160.942C116.348 165.863 110.009 170.488 102.949 174.6Z" fill="#E4422C"/>
<path d="M164.896 96.4366C164.894 96.439 164.894 96.4392 164.894 96.4415V96.4441L156.471 146.885V116.171C152.694 123.612 147.794 131.85 141.534 140.083V180.968H151.077L159.06 132.312L159.429 130.058L162.912 108.842L163.877 102.945L164.988 96.1719C164.959 96.2586 164.928 96.3476 164.896 96.4366Z" fill="#E4422C"/>
<path d="M90.4453 180.969H102.949V174.6C99.0081 176.895 94.8461 179.032 90.4453 180.969Z" fill="#DB2315"/>
<path d="M122.034 160.942V180.969H141.535V140.083C136.108 147.215 129.66 154.345 122.034 160.942Z" fill="#DB2315"/>
<path d="M164.894 96.4438C163.121 101.546 160.404 108.425 156.471 116.171V146.885L164.894 96.4438Z" fill="#DB2315"/>
<path d="M46.0336 86.0648H77.5878V83.5693H45.7925L46.0336 86.0648Z" fill="#DB2315"/>
<path d="M166.841 86.0648H134.44V83.5693H167.089L166.841 86.0648Z" fill="#DB2315"/>
<path d="M64.5806 86.0648H78.5512V83.5693H64.5806V86.0648Z" fill="#E4422C"/>
<path d="M167.674 79.8022L156.471 146.885V79.8022H167.674Z" fill="#EF341C"/>
<path d="M156.835 86.0648H134.44V83.5693H156.835V86.0648Z" fill="#E4422C"/>
</g>
<path d="M167.838 83.5692H134.193V77.1523H167.838C169.61 77.1523 171.046 78.5888 171.046 80.3608C171.046 82.1327 169.61 83.5692 167.838 83.5692Z" fill="#DFDFDF"/>
<path d="M166.633 83.5692H134.192V77.1523H166.633C168.405 77.1523 169.842 78.5888 169.842 80.3608C169.842 82.1327 168.405 83.5692 166.633 83.5692Z" fill="#ECEEEE"/>
<path d="M45.1469 83.5692H77.8286V77.1523H45.1469C43.3749 77.1523 41.9385 78.5888 41.9385 80.3608C41.9385 82.1327 43.3749 83.5692 45.1469 83.5692Z" fill="#DFDFDF"/>
<path d="M46.1103 83.5692H77.8283V77.1523H46.1103C44.3383 77.1523 42.9019 78.5888 42.9019 80.3608C42.9019 82.1327 44.3383 83.5692 46.1103 83.5692Z" fill="#ECEEEE"/>
<path d="M121.908 144.356C121.908 153.003 114.898 160.013 106.251 160.013C97.6044 160.013 90.5947 153.003 90.5947 144.356C90.5947 135.709 97.6044 128.7 106.251 128.7C114.898 128.7 121.908 135.709 121.908 144.356Z" fill="#E1DFDF"/>
<path d="M119.436 144.356C119.436 151.638 113.533 157.54 106.252 157.54C98.97 157.54 93.0669 151.638 93.0669 144.356C93.0669 137.074 98.97 131.171 106.252 131.171C113.533 131.171 119.436 137.074 119.436 144.356Z" fill="#FBF7F7"/>
</g>
</g>
<defs>
<clipPath id="clip0_106_450">
<rect width="213" height="213" fill="white"/>
</clipPath>
</defs>
</svg>
