<svg width="213" height="213" viewBox="0 0 213 213" fill="none" xmlns="http://www.w3.org/2000/svg">
<g clip-path="url(#clip0_116_1657)">
<mask id="mask0_116_1657" style="mask-type:luminance" maskUnits="userSpaceOnUse" x="0" y="0" width="213" height="213">
<path d="M213 0H0V213H213V0Z" fill="white"/>
</mask>
<g mask="url(#mask0_116_1657)">
<mask id="mask1_116_1657" style="mask-type:luminance" maskUnits="userSpaceOnUse" x="-10" y="25" width="225" height="185">
<path d="M214.278 25.9858H-9.79834V209.592H214.278V25.9858Z" fill="white"/>
</mask>
<g mask="url(#mask1_116_1657)">
<path d="M149.057 162.66H63.1339C54.3675 162.66 47.2607 155.554 47.2607 146.787V141.611H164.93V146.787C164.93 155.554 157.824 162.66 149.057 162.66Z" fill="#FFB300"/>
<path d="M164.93 141.611V146.787C164.93 155.555 157.825 162.66 149.057 162.66H102.959C109.322 156.452 114.336 149.351 118.266 141.783C118.297 141.728 118.325 141.669 118.356 141.611H164.93Z" fill="#F8A615"/>
</g>
<mask id="mask2_116_1657" style="mask-type:luminance" maskUnits="userSpaceOnUse" x="-77" y="26" width="367" height="245">
<path d="M289.68 26.0396H-76.6802V270.564H289.68V26.0396Z" fill="white"/>
</mask>
<g mask="url(#mask2_116_1657)">
<path d="M161.425 100.72H50.7667C48.7351 100.72 47.0884 99.0736 47.0884 97.0422V97.042C47.0884 71.2492 67.9979 50.3398 93.7908 50.3398H118.401C144.194 50.3398 165.103 71.2492 165.103 97.042V97.0422C165.103 99.0736 163.456 100.72 161.425 100.72Z" fill="#FFAC01"/>
<path d="M165.103 97.0417C165.103 98.0562 164.692 98.9774 164.026 99.6435C163.361 100.31 162.439 100.72 161.425 100.72H130.282C132.846 80.1263 131.162 61.3201 129.899 51.7651C150.131 56.8859 165.103 75.2158 165.103 97.0417Z" fill="#F39E0E"/>
</g>
<mask id="mask3_116_1657" style="mask-type:luminance" maskUnits="userSpaceOnUse" x="-10" y="26" width="225" height="184">
<path d="M214.105 26.0024H-9.9707V209.608H214.105V26.0024Z" fill="white"/>
</mask>
<g mask="url(#mask3_116_1657)">
<path d="M165.103 134.71C165.103 136.663 164.31 138.43 163.033 139.714C161.749 140.99 159.982 141.784 158.029 141.784H54.1623C50.2561 141.784 47.0884 138.616 47.0884 134.71C47.0884 132.757 47.8822 130.99 49.159 129.707C50.4427 128.43 52.2091 127.636 54.1623 127.636H158.029C158.564 127.636 159.085 127.695 159.582 127.812C160.503 128.016 161.355 128.402 162.101 128.927C163.916 130.207 165.103 132.319 165.103 134.71Z" fill="#583616"/>
<path d="M165.103 134.71C165.103 136.663 164.31 138.43 163.033 139.714C162.098 140.645 160.907 141.318 159.572 141.612C159.075 141.726 158.561 141.784 158.029 141.784H118.267C118.298 141.729 118.325 141.67 118.356 141.612C119.84 138.737 121.172 135.794 122.363 132.809C122.587 132.236 122.811 131.663 123.029 131.087C123.374 130.169 123.708 129.251 124.029 128.326C124.109 128.099 124.188 127.867 124.267 127.636H158.029C158.564 127.636 159.085 127.695 159.582 127.812C159.796 127.861 160.003 127.916 160.207 127.981C160.89 128.202 161.528 128.523 162.101 128.927C162.422 129.154 162.726 129.41 163.005 129.686C163.354 130.028 163.664 130.407 163.933 130.818C164.672 131.932 165.103 133.271 165.103 134.71Z" fill="#50270B"/>
</g>
<path d="M73.8383 127.635L56.0605 136.262L60.9913 127.635H73.8383Z" fill="#714420"/>
<path d="M155.786 136.262L138.008 127.636H150.855L155.786 136.262Z" fill="#583616"/>
<path d="M108.69 127.635L90.9126 136.262L95.8433 127.635H108.69Z" fill="#714420"/>
<path d="M89.3667 127.635L71.5889 136.262L76.5196 127.635H89.3667Z" fill="#714420"/>
<path d="M137.842 136.262L120.064 127.636H132.911L137.842 136.262Z" fill="#583616"/>
<path d="M121.624 136.262L103.846 127.636H116.693L121.624 136.262Z" fill="#714420"/>
<path d="M90.9124 68.2836C90.9124 69.6176 89.831 70.699 88.497 70.699C87.1627 70.699 86.0815 69.6176 86.0815 68.2836C86.0815 66.9496 87.1627 65.8682 88.497 65.8682C89.831 65.8682 90.9124 66.9496 90.9124 68.2836Z" fill="#F5E19F"/>
<path d="M116.448 75.5297C116.448 76.8637 115.367 77.9451 114.032 77.9451C112.698 77.9451 111.617 76.8637 111.617 75.5297C111.617 74.1957 112.698 73.1143 114.032 73.1143C115.367 73.1143 116.448 74.1957 116.448 75.5297Z" fill="#F5E19F"/>
<path d="M77.7996 85.537C77.7996 86.871 76.7182 87.9524 75.3842 87.9524C74.0499 87.9524 72.9688 86.871 72.9688 85.537C72.9688 84.203 74.0499 83.1216 75.3842 83.1216C76.7182 83.1216 77.7996 84.203 77.7996 85.537Z" fill="#F5E19F"/>
<path d="M97.8138 80.7059C97.8138 82.04 96.7321 83.1214 95.3981 83.1214C94.0641 83.1214 92.9829 82.04 92.9829 80.7059C92.9829 79.3719 94.0641 78.2905 95.3981 78.2905C96.7321 78.2905 97.8138 79.3719 97.8138 80.7059Z" fill="#F5E19F"/>
<path d="M111.4 90.0243C111.4 91.3583 110.318 92.4397 108.984 92.4397C107.65 92.4397 106.569 91.3583 106.569 90.0243C106.569 88.6903 107.65 87.6089 108.984 87.6089C110.318 87.6089 111.4 88.6903 111.4 90.0243Z" fill="#F5E19F"/>
<path d="M131.286 85.537C131.286 86.871 130.204 87.9524 128.87 87.9524C127.536 87.9524 126.455 86.871 126.455 85.537C126.455 84.203 127.536 83.1216 128.87 83.1216C130.204 83.1216 131.286 84.203 131.286 85.537Z" fill="#F5E19F"/>
<path d="M128.87 67.9382C128.87 69.2722 127.789 70.3538 126.454 70.3538C125.12 70.3538 124.039 69.2722 124.039 67.9382C124.039 66.6041 125.12 65.5229 126.454 65.5229C127.789 65.5229 128.87 66.6041 128.87 67.9382Z" fill="#F5E19F"/>
<path d="M64.6873 128.843C64.6873 131.035 60.7477 132.812 55.8881 132.812C51.0282 132.812 47.0884 131.035 47.0884 128.843C47.0884 126.652 51.0282 124.875 55.8881 124.875C60.7477 124.875 64.6873 126.652 64.6873 128.843Z" fill="#30A215"/>
<path d="M81.4231 128.843C81.4231 131.035 77.4835 132.812 72.6239 132.812C67.7641 132.812 63.8242 131.035 63.8242 128.843C63.8242 126.652 67.7641 124.875 72.6239 124.875C77.4835 124.875 81.4231 126.652 81.4231 128.843Z" fill="#30A215"/>
<path d="M98.159 128.843C98.159 131.035 94.2193 132.812 89.3597 132.812C84.4999 132.812 80.5601 131.035 80.5601 128.843C80.5601 126.652 84.4999 124.875 89.3597 124.875C94.2193 124.875 98.159 126.652 98.159 128.843Z" fill="#30A215"/>
<path d="M114.895 128.843C114.895 131.035 110.955 132.812 106.095 132.812C101.236 132.812 97.2959 131.035 97.2959 128.843C97.2959 126.652 101.236 124.875 106.095 124.875C110.955 124.875 114.895 126.652 114.895 128.843Z" fill="#30A215"/>
<path d="M131.631 128.843C131.631 131.035 127.692 132.812 122.832 132.812C117.972 132.812 114.032 131.035 114.032 128.843C114.032 126.652 117.972 124.875 122.832 124.875C127.692 124.875 131.631 126.652 131.631 128.843Z" fill="#30A215"/>
<path d="M148.367 128.843C148.367 131.035 144.427 132.812 139.568 132.812C134.708 132.812 130.768 131.035 130.768 128.843C130.768 126.652 134.708 124.875 139.568 124.875C144.427 124.875 148.367 126.652 148.367 128.843Z" fill="#30A215"/>
<path d="M165.103 128.843C165.103 131.035 161.163 132.812 156.304 132.812C151.444 132.812 147.504 131.035 147.504 128.843C147.504 126.652 151.444 124.875 156.304 124.875C161.163 124.875 165.103 126.652 165.103 128.843Z" fill="#30A215"/>
<path d="M131.631 128.833V128.844C131.631 129.271 131.479 129.686 131.2 130.072C130.054 131.663 126.741 132.812 122.832 132.812C122.673 132.812 122.518 132.808 122.362 132.808C122.587 132.236 122.811 131.663 123.029 131.086C123.374 130.169 123.708 129.251 124.029 128.326C124.108 128.098 124.188 127.867 124.267 127.636C124.564 126.766 124.85 125.89 125.123 125.013C127.618 125.314 129.674 126.1 130.768 127.128C130.937 127.287 131.082 127.449 131.2 127.619C131.207 127.625 131.21 127.629 131.214 127.636C131.296 127.75 131.365 127.864 131.421 127.981C131.479 128.095 131.524 128.209 131.555 128.326C131.603 128.491 131.631 128.661 131.631 128.833Z" fill="#238A11"/>
<path d="M148.367 128.843C148.367 131.035 144.427 132.812 139.568 132.812C134.708 132.812 130.768 131.035 130.768 128.843C130.768 126.652 134.708 124.875 139.568 124.875C144.427 124.875 148.367 126.652 148.367 128.843Z" fill="#238A11"/>
<path d="M165.103 128.843C165.103 129.565 164.679 130.237 163.933 130.817C162.415 132.011 159.568 132.812 156.304 132.812C152.394 132.812 149.081 131.663 147.936 130.072C147.656 129.685 147.504 129.271 147.504 128.843V128.833C147.504 128.661 147.532 128.492 147.58 128.326C147.612 128.209 147.656 128.094 147.715 127.981C147.77 127.863 147.839 127.749 147.922 127.636C147.925 127.629 147.929 127.625 147.936 127.618C148.053 127.449 148.198 127.287 148.367 127.128C149.782 125.796 152.805 124.875 156.304 124.875C158.989 124.875 161.394 125.417 163.008 126.28C163.919 126.756 164.578 127.339 164.892 127.981C165.03 128.257 165.103 128.547 165.103 128.843Z" fill="#238A11"/>
<path d="M64.6873 127.118C64.6873 129.31 60.7477 131.086 55.8881 131.086C51.0282 131.086 47.0884 129.31 47.0884 127.118C47.0884 124.926 51.0282 123.15 55.8881 123.15C60.7477 123.15 64.6873 124.926 64.6873 127.118Z" fill="#35B71A"/>
<path d="M81.4231 127.118C81.4231 129.31 77.4835 131.086 72.6239 131.086C67.7641 131.086 63.8242 129.31 63.8242 127.118C63.8242 124.926 67.7641 123.15 72.6239 123.15C77.4835 123.15 81.4231 124.926 81.4231 127.118Z" fill="#35B71A"/>
<path d="M98.159 127.118C98.159 129.31 94.2193 131.086 89.3597 131.086C84.4999 131.086 80.5601 129.31 80.5601 127.118C80.5601 124.926 84.4999 123.15 89.3597 123.15C94.2193 123.15 98.159 124.926 98.159 127.118Z" fill="#35B71A"/>
<path d="M114.895 127.118C114.895 129.31 110.955 131.086 106.095 131.086C101.236 131.086 97.2959 129.31 97.2959 127.118C97.2959 124.926 101.236 123.15 106.095 123.15C110.955 123.15 114.895 124.926 114.895 127.118Z" fill="#35B71A"/>
<path d="M131.631 127.118C131.631 129.31 127.692 131.086 122.832 131.086C117.972 131.086 114.032 129.31 114.032 127.118C114.032 124.926 117.972 123.15 122.832 123.15C127.692 123.15 131.631 124.926 131.631 127.118Z" fill="#35B71A"/>
<path d="M148.367 127.118C148.367 129.31 144.427 131.086 139.568 131.086C134.708 131.086 130.768 129.31 130.768 127.118C130.768 124.926 134.708 123.15 139.568 123.15C144.427 123.15 148.367 124.926 148.367 127.118Z" fill="#35B71A"/>
<path d="M165.103 127.118C165.103 129.31 161.163 131.086 156.304 131.086C151.444 131.086 147.504 129.31 147.504 127.118C147.504 124.926 151.444 123.15 156.304 123.15C161.163 123.15 165.103 124.926 165.103 127.118Z" fill="#35B71A"/>
<mask id="mask4_116_1657" style="mask-type:luminance" maskUnits="userSpaceOnUse" x="-10" y="25" width="225" height="185">
<path d="M214.105 25.9946H-9.9707V209.601H214.105V25.9946Z" fill="white"/>
</mask>
<g mask="url(#mask4_116_1657)">
<path d="M158.029 128.326H54.1625C50.2557 128.326 47.0884 125.159 47.0884 121.252C47.0884 117.345 50.2557 114.178 54.1625 114.178H158.029C161.936 114.178 165.103 117.345 165.103 121.252C165.103 125.159 161.936 128.326 158.029 128.326Z" fill="#35B71A"/>
<path d="M165.103 121.252C165.103 122.69 164.672 124.026 163.933 125.144C163.671 125.544 163.371 125.917 163.032 126.255C163.025 126.262 163.015 126.272 163.008 126.279C162.228 127.045 161.272 127.639 160.206 127.981C159.523 128.205 158.788 128.326 158.029 128.326H124.029C124.108 128.098 124.187 127.867 124.267 127.635C124.564 126.766 124.85 125.89 125.123 125.013C125.299 124.461 125.468 123.909 125.63 123.357C126.472 120.537 127.203 117.701 127.838 114.868C127.894 114.637 127.942 114.409 127.994 114.178H158.029C158.791 114.178 159.523 114.299 160.209 114.523C163.049 115.441 165.103 118.108 165.103 121.252Z" fill="#2CA211"/>
</g>
<path d="M131.631 127.118V127.129C131.631 127.301 131.603 127.47 131.555 127.636C131.524 127.753 131.479 127.867 131.421 127.981C131.365 128.099 131.296 128.212 131.213 128.326C131.21 128.333 131.207 128.34 131.2 128.347C131.079 128.513 130.937 128.675 130.768 128.833C129.378 130.141 126.444 131.052 123.028 131.087C123.373 130.169 123.708 129.251 124.029 128.326C124.108 128.099 124.188 127.867 124.267 127.636C124.564 126.766 124.85 125.89 125.123 125.013C125.299 124.461 125.468 123.909 125.63 123.357C128.267 123.754 130.344 124.699 131.2 125.893C131.479 126.28 131.631 126.69 131.631 127.118Z" fill="#2CA211"/>
<path d="M148.367 127.118C148.367 129.31 144.427 131.086 139.568 131.086C134.708 131.086 130.768 129.31 130.768 127.118C130.768 124.926 134.708 123.15 139.568 123.15C144.427 123.15 148.367 124.926 148.367 127.118Z" fill="#2CA211"/>
<path d="M165.103 127.118C165.103 127.415 165.03 127.705 164.892 127.981C164.578 128.623 163.919 129.206 163.005 129.685C161.39 130.545 158.988 131.086 156.303 131.086C152.805 131.086 149.782 130.165 148.367 128.833C148.198 128.674 148.056 128.512 147.935 128.347C147.929 128.34 147.925 128.333 147.922 128.326C147.839 128.212 147.77 128.098 147.715 127.981C147.656 127.867 147.611 127.753 147.58 127.636C147.532 127.47 147.504 127.301 147.504 127.128V127.118C147.504 126.69 147.656 126.28 147.935 125.893C149.078 124.302 152.394 123.15 156.303 123.15C159.568 123.15 162.415 123.95 163.933 125.144C164.679 125.724 165.103 126.397 165.103 127.118Z" fill="#2CA211"/>
<mask id="mask5_116_1657" style="mask-type:luminance" maskUnits="userSpaceOnUse" x="-10" y="26" width="225" height="184">
<path d="M214.105 26.0483H-9.9707V209.654H214.105V26.0483Z" fill="white"/>
</mask>
<g mask="url(#mask5_116_1657)">
<path d="M158.029 114.268H54.1625C50.2557 114.268 47.0884 111.101 47.0884 107.194C47.0884 103.287 50.2557 100.12 54.1625 100.12H158.029C161.936 100.12 165.103 103.287 165.103 107.194C165.103 111.101 161.936 114.268 158.029 114.268Z" fill="#E13A13"/>
</g>
<mask id="mask6_116_1657" style="mask-type:luminance" maskUnits="userSpaceOnUse" x="70" y="11" width="225" height="185">
<path d="M294.855 11.937H70.7793V195.543H294.855V11.937Z" fill="white"/>
</mask>
<g mask="url(#mask6_116_1657)">
<path d="M165.103 107.194C165.103 109.147 164.309 110.914 163.032 112.198C162.249 112.977 161.286 113.574 160.209 113.923C159.523 114.147 158.791 114.268 158.029 114.268H127.838C127.894 114.037 127.942 113.809 127.994 113.578C128.984 109.057 129.729 104.547 130.282 100.12H158.029C161.935 100.12 165.103 103.288 165.103 107.194Z" fill="#CF2C0B"/>
</g>
<path d="M168.335 121.771L157.547 113.726L159.198 111.513L169.986 119.558L168.335 121.771Z" fill="#53C816"/>
<path d="M142.732 120.96L137.342 114.544L140.074 114.146L145.463 120.562L142.732 120.96Z" fill="#53C816"/>
<path d="M124.098 120.959L118.708 114.544L121.44 114.146L126.83 120.562L124.098 120.959Z" fill="#BCF46D"/>
<path d="M86.0227 120.959L91.4127 114.544L88.6808 114.146L83.291 120.562L86.0227 120.959Z" fill="#BCF46D"/>
<path d="M64.9734 120.959L70.3634 114.544L67.6315 114.146L62.2417 120.562L64.9734 120.959Z" fill="#BCF46D"/>
<path d="M43.0142 116.723L51.5401 111.621L52.799 114.078L44.2728 119.18L43.0142 116.723Z" fill="#BCF46D"/>
<path d="M66.5851 152.136C65.5369 152.136 64.687 151.286 64.687 150.238V141.784H68.4827V150.238C68.4827 151.286 67.6332 152.136 66.5851 152.136Z" fill="#583616"/>
<path d="M67.7927 156.277C67.7927 157.039 67.1748 157.657 66.4125 157.657C65.6501 157.657 65.0322 157.039 65.0322 156.277C65.0322 155.514 65.6501 154.896 66.4125 154.896C67.1748 154.896 67.7927 155.514 67.7927 156.277Z" fill="#583616"/>
<path d="M86.2159 100.081C84.5458 101.247 82.7338 102.445 80.9049 103.535C79.0416 104.65 77.1578 105.654 75.384 106.403C72.3129 107.707 69.5625 108.259 67.7922 107.328C65.318 106.027 63.1925 103.156 61.498 100.081H86.2159Z" fill="#E1CF16"/>
<path d="M76.4196 102.669C76.4196 103.683 74.3339 104.504 71.7611 104.504C69.1882 104.504 67.1025 103.683 67.1025 102.669C67.1025 101.656 69.1882 100.834 71.7611 100.834C74.3339 100.834 76.4196 101.656 76.4196 102.669Z" fill="#E1DF6C"/>
<path d="M97.9795 100.081H125.417C120.848 104.498 114.16 109.326 108.166 107.328C103.442 105.754 100.154 102.81 97.9795 100.081Z" fill="#E1CF16"/>
<path d="M116.448 102.669C116.448 103.683 114.362 104.504 111.789 104.504C109.216 104.504 107.131 103.683 107.131 102.669C107.131 101.656 109.216 100.834 111.789 100.834C114.362 100.834 116.448 101.656 116.448 102.669Z" fill="#E1DF6C"/>
<path d="M162.101 101.372C161.307 102.321 160.469 103.204 159.582 103.995C157.922 105.475 156.103 106.621 154.13 107.249C152.591 107.739 150.958 107.908 149.229 107.673C141.707 106.648 137.149 103.249 134.464 100.082H158.029C158.564 100.082 159.085 100.14 159.582 100.257C160.503 100.461 161.355 100.847 162.101 101.372Z" fill="#D0B00F"/>
<path d="M156.476 102.669C156.476 103.683 154.391 104.504 151.818 104.504C149.245 104.504 147.159 103.683 147.159 102.669C147.159 101.656 149.245 100.834 151.818 100.834C154.391 100.834 156.476 101.656 156.476 102.669Z" fill="#C5D279"/>
</g>
</g>
<defs>
<clipPath id="clip0_116_1657">
<rect width="213" height="213" fill="white"/>
</clipPath>
</defs>
</svg>
