<svg width="30" height="30" viewBox="0 0 30 30" fill="none" xmlns="http://www.w3.org/2000/svg">
<g clip-path="url(#clip0_482_287)">
<path fill-rule="evenodd" clip-rule="evenodd" d="M15.4663 10.1151L16.4775 9.10384C16.2509 8.63297 16.1251 8.11995 16.1083 7.59764C16.0914 7.07534 16.1839 6.55528 16.3798 6.0708C16.5757 5.58632 16.8706 5.14811 17.2457 4.78426C17.6208 4.42041 18.0678 4.13894 18.558 3.9579C19.0482 3.77685 19.5708 3.70023 20.0924 3.73294C20.6139 3.76565 21.1229 3.90697 21.5867 4.14784C22.0504 4.38871 22.4587 4.72382 22.7854 5.13169C23.1121 5.53956 23.35 6.01118 23.4838 6.51634C23.9864 6.65231 24.4553 6.89147 24.8604 7.2186C25.2656 7.54573 25.5981 7.95365 25.837 8.41638C26.0758 8.87912 26.2156 9.38651 26.2475 9.90626C26.2795 10.426 26.2028 10.9467 26.0224 11.4352C25.8421 11.9237 25.5619 12.3693 25.1999 12.7435C24.8378 13.1178 24.4018 13.4126 23.9196 13.609C23.4374 13.8055 22.9195 13.8994 22.399 13.8848C21.8784 13.8701 21.3667 13.7472 20.8963 13.5238L19.885 14.5351L19.8913 14.5776C20.0363 15.7351 19.95 17.0226 19.7 18.2876C19.2063 20.7888 18.0163 23.4751 16.325 25.1651C14.6175 26.8726 12.6025 27.5776 10.5863 27.3976C8.60753 27.2213 6.76003 26.2051 5.27753 24.7226C3.79503 23.2413 2.78003 21.3938 2.60253 19.4138C2.42253 17.3976 3.12753 15.3826 4.83503 13.6751C6.52628 11.9838 9.21253 10.7951 11.7125 10.3001C12.9788 10.0501 14.265 9.96384 15.4238 10.1101L15.4663 10.1151ZM22.435 8.89134C22.1524 8.5502 21.7458 8.33531 21.3048 8.29393C20.8637 8.25256 20.4243 8.38809 20.0832 8.67071C19.742 8.95333 19.5271 9.35989 19.4858 9.80096C19.4444 10.242 19.5799 10.6815 19.8625 11.0226L18.9413 11.9426C18.6958 11.6026 18.3975 11.3043 18.0575 11.0588L18.9775 10.1388C19.2119 9.90443 19.3435 9.58654 19.3435 9.25509C19.3435 8.92363 19.2119 8.60575 18.9775 8.37134C18.8298 8.22363 18.7214 8.04125 18.6623 7.84086C18.6032 7.64048 18.5953 7.42848 18.6393 7.22424C18.6832 7.02 18.7777 6.83004 18.914 6.67172C19.0503 6.5134 19.2242 6.39177 19.4196 6.31795C19.615 6.24413 19.8259 6.22048 20.0328 6.24914C20.2397 6.27781 20.4362 6.35789 20.6042 6.48206C20.7722 6.60623 20.9064 6.77053 20.9946 6.95994C21.0827 7.14935 21.122 7.35784 21.1088 7.56634C21.0978 7.74319 21.1246 7.92036 21.1873 8.08609C21.25 8.25182 21.3472 8.40232 21.4725 8.52762C21.5978 8.65291 21.7483 8.75014 21.914 8.81285C22.0798 8.87555 22.2582 8.90231 22.435 8.89134ZM6.60378 15.4413C7.84128 14.2038 10.0163 13.1838 12.1975 12.7538C13.2725 12.5413 14.2825 12.4863 15.11 12.5913C15.9563 12.6963 16.4863 12.9513 16.7675 13.2326C17.0488 13.5138 17.3038 14.0451 17.41 14.8901C17.515 15.7188 17.46 16.7276 17.2475 17.8026C16.8163 19.9826 15.7963 22.1588 14.5575 23.3976C13.3375 24.6188 12.0375 25.0176 10.8088 24.9076C9.54253 24.7951 8.21503 24.1251 7.04628 22.9551C5.87503 21.7863 5.20628 20.4576 5.09253 19.1926C4.98253 17.9626 5.38253 16.6638 6.60378 15.4426V15.4413Z" fill="#FFBC0D"/>
</g>
<defs>
<clipPath id="clip0_482_287">
<rect width="30" height="30" fill="white"/>
</clipPath>
</defs>
</svg>
