<svg width="16" height="16" viewBox="0 0 16 16" fill="none" xmlns="http://www.w3.org/2000/svg">
<path d="M11.6667 14H12.3333V12.3333H14V11.6667H12.3333V10H11.6667V11.6667H10V12.3333H11.6667V14ZM12 15.3333C11.0778 15.3333 10.2916 15.0082 9.64133 14.358C8.99111 13.7078 8.66622 12.9218 8.66667 12C8.66667 11.0778 8.99178 10.2916 9.642 9.64133C10.2922 8.99111 11.0782 8.66622 12 8.66667C12.9222 8.66667 13.7084 8.99178 14.3587 9.642C15.0089 10.2922 15.3338 11.0782 15.3333 12C15.3333 12.9222 15.0082 13.7084 14.358 14.3587C13.7078 15.0089 12.9218 15.3338 12 15.3333ZM4.66667 6H11.3333V4.66667H4.66667V6ZM7.78333 14H3.33333C2.96667 14 2.65267 13.8693 2.39133 13.608C2.13 13.3467 1.99956 13.0329 2 12.6667V3.33333C2 2.96667 2.13067 2.65267 2.392 2.39133C2.65333 2.13 2.96711 1.99956 3.33333 2H12.6667C13.0333 2 13.3473 2.13067 13.6087 2.392C13.87 2.65333 14.0004 2.96711 14 3.33333V7.8C13.6778 7.64445 13.3527 7.52778 13.0247 7.45C12.6967 7.37222 12.3551 7.33333 12 7.33333C11.8778 7.33333 11.7638 7.336 11.658 7.34133C11.5522 7.34667 11.444 7.36067 11.3333 7.38333V7.33333H4.66667V8.66667H8.75C8.55 8.85556 8.36934 9.06111 8.208 9.28333C8.04667 9.50556 7.90511 9.74445 7.78333 10H4.66667V11.3333H7.38333C7.36111 11.4444 7.34711 11.5529 7.34133 11.6587C7.33556 11.7644 7.33289 11.8782 7.33333 12C7.33333 12.3667 7.36667 12.7084 7.43333 13.0253C7.5 13.3422 7.61667 13.6671 7.78333 14Z" fill="black"/>
</svg>
