<svg width="30" height="30" viewBox="0 0 30 30" fill="none" xmlns="http://www.w3.org/2000/svg">
<path d="M11.7769 8.57676L20.1737 16.9736L7.29937 25.3124L3.52124 21.5343L11.7769 8.57676ZM24.2331 12.1936C23.5706 12.8568 23.1331 12.8624 22.4756 13.088C22.455 14.8355 22.4794 16.5943 20.2619 17.028L11.6269 8.39301C11.6269 8.39301 11.6212 7.53676 12.4994 7.08988C12.8087 6.94488 13.4362 7.01301 13.81 7.07426C14.6887 5.18363 16.0194 4.86426 17.4994 5.47551C18.2087 4.40176 19.9619 3.94426 21.2669 4.36613C22.5725 4.78801 22.5619 5.66176 23.4306 6.08801C24.2994 6.51488 25.1831 5.63113 25.1881 5.19426C25.1931 4.75676 25.1169 3.92176 25.7056 4.07301C26.065 4.17051 26.3544 4.51988 26.7031 5.97551C26.8969 6.79301 26.7844 8.00176 26.0862 8.74363C25.6575 9.19926 24.7006 9.43738 24.2637 9.57301C24.305 9.69176 24.8969 11.5311 24.2331 12.1936Z" stroke="#FFBC0D" stroke-width="2" stroke-linecap="round" stroke-linejoin="round"/>
<path d="M24.2638 9.5725C22.5057 10.4662 21.2007 10.045 19.905 8.75" stroke="#FFBC0D" stroke-width="2" stroke-linecap="round" stroke-linejoin="round"/>
</svg>
