<svg width="30" height="30" viewBox="0 0 30 30" fill="none" xmlns="http://www.w3.org/2000/svg">
<path d="M11.7771 8.577L20.174 16.9739L7.29961 25.3126L3.52148 21.5345L11.7771 8.577ZM24.2334 12.1939C23.5709 12.857 23.1334 12.8626 22.4759 13.0883C22.4552 14.8358 22.4796 16.5945 20.2621 17.0283L11.6271 8.39325C11.6271 8.39325 11.6215 7.537 12.4996 7.09013C12.809 6.94513 13.4365 7.01325 13.8102 7.0745C14.689 5.18388 16.0196 4.8645 17.4996 5.47575C18.209 4.402 19.9621 3.9445 21.2671 4.36638C22.5727 4.78825 22.5621 5.662 23.4309 6.08825C24.2996 6.51513 25.1834 5.63138 25.1884 5.1945C25.1934 4.757 25.1171 3.922 25.7059 4.07325C26.0652 4.17075 26.3546 4.52013 26.7034 5.97575C26.8971 6.79325 26.7846 8.002 26.0865 8.74388C25.6577 9.1995 24.7009 9.43763 24.264 9.57325C24.3052 9.692 24.8971 11.5314 24.2334 12.1939Z" stroke="#FFBC0D" stroke-width="2" stroke-linecap="round" stroke-linejoin="round"/>
<path d="M24.264 9.5725C22.5059 10.4662 21.2009 10.045 19.9053 8.75" stroke="#FFBC0D" stroke-width="2" stroke-linecap="round" stroke-linejoin="round"/>
</svg>
